<!DOCTYPE svg PUBLIC "-//W3C//DTD SVG 1.1//EN" "http://www.w3.org/Graphics/SVG/1.1/DTD/svg11.dtd">
<!-- Uploaded to: SVG Repo, www.svgrepo.com, Transformed by: SVG Repo Mixer Tools -->
<svg fill="#ffffff" height="800px" width="800px" version="1.1" id="Capa_1" xmlns="http://www.w3.org/2000/svg" xmlns:xlink="http://www.w3.org/1999/xlink" viewBox="0 0 60 60" xml:space="preserve" stroke="#ffffff">
<g id="SVGRepo_bgCarrier" stroke-width="0"/>
<g id="SVGRepo_tracerCarrier" stroke-linecap="round" stroke-linejoin="round"/>
<g id="SVGRepo_iconCarrier"> <g> <path d="M35.496,20.332c0.154,0,0.312-0.036,0.458-0.111c0.543-0.281,1.111-0.517,1.689-0.7c0.526-0.168,0.816-0.73,0.649-1.257 c-0.168-0.526-0.728-0.818-1.257-0.649c-0.685,0.219-1.357,0.497-2,0.829c-0.49,0.254-0.683,0.857-0.43,1.348 C34.784,20.135,35.134,20.332,35.496,20.332z"/> <path d="M41.279,19h2c0.553,0,1-0.447,1-1s-0.447-1-1-1h-2c-0.553,0-1,0.447-1,1S40.727,19,41.279,19z"/> <path d="M47.279,19h2c0.553,0,1-0.447,1-1s-0.447-1-1-1h-2c-0.553,0-1,0.447-1,1S46.727,19,47.279,19z"/> <path d="M55.279,19c0.553,0,1-0.447,1-1s-0.447-1-1-1h-2c-0.553,0-1,0.447-1,1s0.447,1,1,1H55.279z"/> <path d="M3,41H1c-0.553,0-1,0.447-1,1s0.447,1,1,1h2c0.553,0,1-0.447,1-1S3.553,41,3,41z"/> <path d="M31.056,24.274c0.32,0,0.635-0.153,0.828-0.438c0.343-0.505,0.729-0.985,1.151-1.428c0.381-0.4,0.365-1.033-0.035-1.414 c-0.398-0.378-1.032-0.364-1.414,0.035c-0.496,0.522-0.953,1.089-1.356,1.684c-0.311,0.457-0.191,1.079,0.266,1.389 C30.667,24.219,30.862,24.274,31.056,24.274z"/> <path d="M20.599,40.399c-0.574,0.199-1.17,0.351-1.772,0.45c-0.545,0.09-0.913,0.605-0.822,1.15 c0.081,0.489,0.505,0.836,0.985,0.836c0.054,0,0.109-0.004,0.165-0.014c0.712-0.118,1.418-0.297,2.099-0.532 c0.521-0.181,0.799-0.75,0.618-1.272C21.689,40.496,21.12,40.22,20.599,40.399z"/> <path d="M25.143,37.401c-0.41,0.451-0.862,0.871-1.343,1.25c-0.434,0.342-0.508,0.97-0.166,1.404 c0.197,0.25,0.49,0.381,0.786,0.381c0.216,0,0.435-0.07,0.618-0.215c0.566-0.446,1.099-0.941,1.583-1.473 c0.372-0.409,0.343-1.041-0.065-1.413C26.146,36.964,25.515,36.995,25.143,37.401z"/> <path d="M15,41h-2c-0.553,0-1,0.447-1,1s0.447,1,1,1h2c0.553,0,1-0.447,1-1S15.553,41,15,41z"/> <path d="M9,41H7c-0.553,0-1,0.447-1,1s0.447,1,1,1h2c0.553,0,1-0.447,1-1S9.553,41,9,41z"/> <path d="M57.586,18l-7.293,7.293c-0.391,0.391-0.391,1.023,0,1.414C50.488,26.902,50.744,27,51,27s0.512-0.098,0.707-0.293l8-8 c0.391-0.391,0.391-1.023,0-1.414l-8-8c-0.391-0.391-1.023-0.391-1.414,0s-0.391,1.023,0,1.414L57.586,18z"/> <path d="M59.923,41.618c-0.051-0.123-0.125-0.234-0.217-0.326l-7.999-7.999c-0.391-0.391-1.023-0.391-1.414,0s-0.391,1.023,0,1.414 L56.586,41H41c-6.065,0-11-4.935-11-11c0-0.252-0.024-0.499-0.038-0.748c0.04-0.093,0.076-0.19,0.086-0.296 c0.058-0.61,0.166-1.217,0.322-1.803c0.142-0.534-0.176-1.081-0.71-1.224c-0.111-0.029-0.221-0.027-0.329-0.018 C27.612,20.742,22.739,17,17,17H1c-0.553,0-1,0.447-1,1s0.447,1,1,1h16c6.065,0,11,4.935,11,11c0,0.672,0.067,1.327,0.166,1.971 c-0.228,0.132-0.405,0.35-0.471,0.625c-0.144,0.593-0.338,1.177-0.578,1.736c-0.218,0.508,0.017,1.096,0.524,1.313 c0.129,0.055,0.263,0.081,0.395,0.081c0.388,0,0.756-0.227,0.919-0.605c0.018-0.041,0.03-0.084,0.048-0.125 C30.964,39.691,35.602,43,41,43h15.586l-6.293,6.293c-0.391,0.391-0.391,1.023,0,1.414C50.488,50.902,50.744,51,51,51 s0.512-0.098,0.707-0.293l7.999-7.999c0.093-0.092,0.166-0.203,0.217-0.326C60.024,42.138,60.024,41.863,59.923,41.618z"/> </g> </g>
</svg>